<mxfile host="app.diagrams.net" agent="Mozilla/5.0 (Windows NT 10.0; Win64; x64) AppleWebKit/537.36 (KHTML, like Gecko) Chrome/128.0.0.0 Safari/537.36" version="24.7.14">
  <diagram name="Page-1" id="2QMQMIxGHD4lNl_RSzvD">
    <mxGraphModel dx="2876" dy="1066" grid="1" gridSize="10" guides="1" tooltips="1" connect="1" arrows="1" fold="1" page="1" pageScale="1" pageWidth="827" pageHeight="1169" math="0" shadow="0">
      <root>
        <mxCell id="0" />
        <mxCell id="1" parent="0" />
        <mxCell id="LP4Zm8nX6KeP2Kf99gxL-1" value="" style="whiteSpace=wrap;html=1;aspect=fixed;" vertex="1" parent="1">
          <mxGeometry x="-800" y="30" width="450" height="450" as="geometry" />
        </mxCell>
        <mxCell id="LP4Zm8nX6KeP2Kf99gxL-2" value="" style="rounded=0;whiteSpace=wrap;html=1;gradientColor=none;fillColor=#8C8C8C;" vertex="1" parent="1">
          <mxGeometry x="-800" y="90" width="120" height="390" as="geometry" />
        </mxCell>
        <mxCell id="LP4Zm8nX6KeP2Kf99gxL-5" value="" style="rounded=0;whiteSpace=wrap;html=1;fillColor=#8C8C8C;" vertex="1" parent="1">
          <mxGeometry x="-800" y="30" width="160" height="60" as="geometry" />
        </mxCell>
        <mxCell id="LP4Zm8nX6KeP2Kf99gxL-6" value="" style="rounded=0;whiteSpace=wrap;html=1;fillColor=#D1D1D1;fontColor=#333333;strokeColor=#666666;" vertex="1" parent="1">
          <mxGeometry x="-640" y="30" width="150" height="60" as="geometry" />
        </mxCell>
        <mxCell id="LP4Zm8nX6KeP2Kf99gxL-7" value="" style="rounded=0;whiteSpace=wrap;html=1;fillColor=#8C8C8C;" vertex="1" parent="1">
          <mxGeometry x="-490" y="30" width="140" height="60" as="geometry" />
        </mxCell>
        <mxCell id="LP4Zm8nX6KeP2Kf99gxL-9" style="edgeStyle=orthogonalEdgeStyle;rounded=0;orthogonalLoop=1;jettySize=auto;html=1;" edge="1" parent="1">
          <mxGeometry relative="1" as="geometry">
            <mxPoint x="-320" y="325" as="sourcePoint" />
            <mxPoint x="-320" y="345" as="targetPoint" />
          </mxGeometry>
        </mxCell>
        <mxCell id="LP4Zm8nX6KeP2Kf99gxL-11" value="" style="rounded=0;whiteSpace=wrap;html=1;rotation=90;fillColor=#D1D1D1;" vertex="1" parent="1">
          <mxGeometry x="-710" y="120" width="390" height="330" as="geometry" />
        </mxCell>
        <mxCell id="LP4Zm8nX6KeP2Kf99gxL-12" value="" style="whiteSpace=wrap;html=1;aspect=fixed;" vertex="1" parent="1">
          <mxGeometry x="-210" y="30" width="450" height="450" as="geometry" />
        </mxCell>
        <mxCell id="LP4Zm8nX6KeP2Kf99gxL-14" value="" style="rounded=0;whiteSpace=wrap;html=1;" vertex="1" parent="1">
          <mxGeometry x="-210" y="90" width="120" height="390" as="geometry" />
        </mxCell>
        <mxCell id="LP4Zm8nX6KeP2Kf99gxL-15" value="" style="rounded=0;whiteSpace=wrap;html=1;fillColor=#FFFFFF;" vertex="1" parent="1">
          <mxGeometry x="-210" y="30" width="160" height="60" as="geometry" />
        </mxCell>
        <mxCell id="LP4Zm8nX6KeP2Kf99gxL-16" value="" style="rounded=0;whiteSpace=wrap;html=1;fillColor=#FFFFFF;" vertex="1" parent="1">
          <mxGeometry x="100" y="30" width="140" height="60" as="geometry" />
        </mxCell>
        <mxCell id="LP4Zm8nX6KeP2Kf99gxL-17" style="edgeStyle=orthogonalEdgeStyle;rounded=0;orthogonalLoop=1;jettySize=auto;html=1;exitX=1;exitY=0.5;exitDx=0;exitDy=0;entryX=0.923;entryY=0.5;entryDx=0;entryDy=0;entryPerimeter=0;" edge="1" parent="1" source="LP4Zm8nX6KeP2Kf99gxL-6" target="LP4Zm8nX6KeP2Kf99gxL-6">
          <mxGeometry relative="1" as="geometry" />
        </mxCell>
        <mxCell id="LP4Zm8nX6KeP2Kf99gxL-18" value="" style="rounded=0;whiteSpace=wrap;html=1;fillColor=#FFFFFF;fontColor=#333333;strokeColor=#666666;" vertex="1" parent="1">
          <mxGeometry x="-50" y="30" width="150" height="60" as="geometry" />
        </mxCell>
        <mxCell id="LP4Zm8nX6KeP2Kf99gxL-19" value="" style="verticalLabelPosition=bottom;verticalAlign=top;html=1;shape=mxgraph.basic.rect;fillColor2=none;strokeWidth=1;size=20;indent=5;fontStyle=1" vertex="1" parent="1">
          <mxGeometry x="-35" y="52.5" width="100" height="15" as="geometry" />
        </mxCell>
        <mxCell id="LP4Zm8nX6KeP2Kf99gxL-21" value="&lt;font style=&quot;font-size: 9px;&quot;&gt;Barre de recherche&lt;/font&gt;" style="text;html=1;align=center;verticalAlign=middle;resizable=0;points=[];autosize=1;strokeColor=none;fillColor=none;" vertex="1" parent="1">
          <mxGeometry x="-35" y="45" width="100" height="30" as="geometry" />
        </mxCell>
        <mxCell id="LP4Zm8nX6KeP2Kf99gxL-22" value="" style="verticalLabelPosition=bottom;verticalAlign=top;html=1;shape=mxgraph.basic.rect;fillColor2=none;strokeWidth=1;size=9.3;indent=5;" vertex="1" parent="1">
          <mxGeometry x="-160" y="47.5" width="95" height="25" as="geometry" />
        </mxCell>
        <mxCell id="LP4Zm8nX6KeP2Kf99gxL-23" value="logo interactif&lt;div&gt;menu&lt;/div&gt;" style="text;html=1;align=center;verticalAlign=middle;resizable=0;points=[];autosize=1;strokeColor=none;fillColor=none;" vertex="1" parent="1">
          <mxGeometry x="-155" y="40" width="90" height="40" as="geometry" />
        </mxCell>
        <mxCell id="LP4Zm8nX6KeP2Kf99gxL-24" value="&lt;font style=&quot;font-size: 9px;&quot;&gt;logo notification&lt;/font&gt;" style="rounded=0;whiteSpace=wrap;html=1;" vertex="1" parent="1">
          <mxGeometry x="135" y="40" width="50" height="35" as="geometry" />
        </mxCell>
        <mxCell id="LP4Zm8nX6KeP2Kf99gxL-27" value="&lt;font style=&quot;font-size: 9px;&quot;&gt;compte&lt;/font&gt;" style="whiteSpace=wrap;html=1;aspect=fixed;" vertex="1" parent="1">
          <mxGeometry x="190" y="40" width="35" height="35" as="geometry" />
        </mxCell>
        <mxCell id="LP4Zm8nX6KeP2Kf99gxL-32" value="&lt;font style=&quot;font-size: 7px;&quot;&gt;menu déroulant&lt;/font&gt;" style="whiteSpace=wrap;html=1;aspect=fixed;" vertex="1" parent="1">
          <mxGeometry x="-210" y="44.38" width="31.25" height="31.25" as="geometry" />
        </mxCell>
        <mxCell id="LP4Zm8nX6KeP2Kf99gxL-33" value="son compte&amp;nbsp;" style="rounded=0;whiteSpace=wrap;html=1;" vertex="1" parent="1">
          <mxGeometry x="-210" y="160" width="120" height="80" as="geometry" />
        </mxCell>
        <mxCell id="LP4Zm8nX6KeP2Kf99gxL-34" value="abonnements&amp;nbsp;" style="whiteSpace=wrap;html=1;aspect=fixed;" vertex="1" parent="1">
          <mxGeometry x="-210" y="240" width="120" height="120" as="geometry" />
        </mxCell>
        <mxCell id="LP4Zm8nX6KeP2Kf99gxL-35" value="explorer" style="rounded=0;whiteSpace=wrap;html=1;" vertex="1" parent="1">
          <mxGeometry x="-210" y="360" width="120" height="40" as="geometry" />
        </mxCell>
        <mxCell id="LP4Zm8nX6KeP2Kf99gxL-37" value="autre contenus" style="rounded=0;whiteSpace=wrap;html=1;" vertex="1" parent="1">
          <mxGeometry x="-210" y="400" width="120" height="40" as="geometry" />
        </mxCell>
        <mxCell id="LP4Zm8nX6KeP2Kf99gxL-38" value="catégorie de vidéos&amp;nbsp;" style="rounded=0;whiteSpace=wrap;html=1;" vertex="1" parent="1">
          <mxGeometry x="-90" y="90" width="330" height="20" as="geometry" />
        </mxCell>
        <mxCell id="LP4Zm8nX6KeP2Kf99gxL-41" value="miniatures de vidéos&amp;nbsp;" style="rounded=0;whiteSpace=wrap;html=1;" vertex="1" parent="1">
          <mxGeometry x="-90" y="110" width="330" height="100" as="geometry" />
        </mxCell>
        <mxCell id="LP4Zm8nX6KeP2Kf99gxL-42" value="miniatures des shorts" style="rounded=0;whiteSpace=wrap;html=1;" vertex="1" parent="1">
          <mxGeometry x="-90" y="205" width="330" height="175" as="geometry" />
        </mxCell>
        <mxCell id="LP4Zm8nX6KeP2Kf99gxL-43" value="miniatures de vidéos&amp;nbsp;" style="rounded=0;whiteSpace=wrap;html=1;" vertex="1" parent="1">
          <mxGeometry x="-90" y="380" width="330" height="100" as="geometry" />
        </mxCell>
        <mxCell id="LP4Zm8nX6KeP2Kf99gxL-44" value="" style="whiteSpace=wrap;html=1;aspect=fixed;" vertex="1" parent="1">
          <mxGeometry x="-800" y="550" width="450" height="450" as="geometry" />
        </mxCell>
        <mxCell id="LP4Zm8nX6KeP2Kf99gxL-45" value="" style="rounded=0;whiteSpace=wrap;html=1;gradientColor=none;fillColor=#8C8C8C;" vertex="1" parent="1">
          <mxGeometry x="-800" y="610" width="120" height="390" as="geometry" />
        </mxCell>
        <mxCell id="LP4Zm8nX6KeP2Kf99gxL-46" value="" style="rounded=0;whiteSpace=wrap;html=1;fillColor=#8C8C8C;" vertex="1" parent="1">
          <mxGeometry x="-800" y="550" width="160" height="60" as="geometry" />
        </mxCell>
        <mxCell id="LP4Zm8nX6KeP2Kf99gxL-47" value="" style="rounded=0;whiteSpace=wrap;html=1;fillColor=#D1D1D1;fontColor=#333333;strokeColor=#666666;" vertex="1" parent="1">
          <mxGeometry x="-640" y="550" width="150" height="60" as="geometry" />
        </mxCell>
        <mxCell id="LP4Zm8nX6KeP2Kf99gxL-48" value="" style="rounded=0;whiteSpace=wrap;html=1;fillColor=#8C8C8C;" vertex="1" parent="1">
          <mxGeometry x="-490" y="550" width="140" height="60" as="geometry" />
        </mxCell>
        <mxCell id="LP4Zm8nX6KeP2Kf99gxL-49" style="edgeStyle=orthogonalEdgeStyle;rounded=0;orthogonalLoop=1;jettySize=auto;html=1;" edge="1" parent="1">
          <mxGeometry relative="1" as="geometry">
            <mxPoint x="-320" y="845" as="sourcePoint" />
            <mxPoint x="-320" y="865" as="targetPoint" />
          </mxGeometry>
        </mxCell>
        <mxCell id="LP4Zm8nX6KeP2Kf99gxL-50" value="" style="rounded=0;whiteSpace=wrap;html=1;rotation=90;fillColor=#D1D1D1;" vertex="1" parent="1">
          <mxGeometry x="-710" y="640" width="390" height="330" as="geometry" />
        </mxCell>
        <mxCell id="LP4Zm8nX6KeP2Kf99gxL-51" style="edgeStyle=orthogonalEdgeStyle;rounded=0;orthogonalLoop=1;jettySize=auto;html=1;exitX=1;exitY=0.5;exitDx=0;exitDy=0;entryX=0.923;entryY=0.5;entryDx=0;entryDy=0;entryPerimeter=0;" edge="1" parent="1" source="LP4Zm8nX6KeP2Kf99gxL-47" target="LP4Zm8nX6KeP2Kf99gxL-47">
          <mxGeometry relative="1" as="geometry" />
        </mxCell>
      </root>
    </mxGraphModel>
  </diagram>
</mxfile>
